<svg xmlns="http://www.w3.org/2000/svg" style="display:none">
  <!-- Stroke style as presentation attributes on every element:
       iOS Safari does not apply external-doc <style> to <use> clones -->
  <symbol id="emoji-1" viewBox="398.5 41.9 232.3 232.3">
    <path fill="none" stroke="#000" stroke-width="10" stroke-linecap="round" stroke-linejoin="round" d="M457.9,155.7c-2.8,3.2-2.2,7-1.8,10.8c0.6,5.5,1.8,10.9,3.8,16.1c7.8,20,21.8,33.5,42.6,38.8   c20.8,5.3,39.8,0.9,56-13.7c10.9-9.7,16.3-22.3,18.9-36.4c0.6-3.1,1.6-6.2,1.1-9.5c-0.2-1.1-0.4-2-1.1-2.8c0.9-1.8,1.8-3.6,2.7-5.4   "/>
    <path fill="none" stroke="#000" stroke-width="10" stroke-linecap="round" stroke-linejoin="round" d="M577.2,159.1c-2,0-3.7,0.8-5.4,1.8c-9.6,5.9-20.3,9-31.2,11.2c-7.8,1.6-15.6,2.4-23.5,2   c-18.7-0.8-36.5-5-52.5-15.1c-2.1-1.4-4.1-3.1-6.7-3.6c-0.4-2-1.5-3.8-1.4-5.9"/>
    <path fill="none" stroke="#000" stroke-width="10" stroke-linecap="round" stroke-linejoin="round" d="M547.5,84.8c0.8-0.1,1.4,0.3,2,0.8c5.8,4.3,11.9,8,18.2,11.6c0.9,0.5,1.8,0.2,2.6,0.6"/>
    <path fill="none" stroke="#000" stroke-width="10" stroke-linecap="round" stroke-linejoin="round" d="M491.7,82.8c-1.9,0.1-3.4,1.2-4.8,2.1c-4.4,2.8-8.8,5.6-12.5,9.2c-1.1,1.1-2.3,1.1-3.6,0.9"/>
    <path fill="none" stroke="#000" stroke-width="10" stroke-linecap="round" stroke-linejoin="round" d="M511.2,54.1c-3.5,0.4-7,1.2-10.5,1.2c-4.7-0.1-9,1.2-13.3,2.7c-11.4,3.9-21.6,9.9-31,17.4   c-21.5,17.3-35.4,39.5-42.5,66c-2.8,10.4-3.9,21-3.1,31.7c1.8,22.2,10.3,41.4,25.6,57.6c13.7,14.5,30.7,22.9,49.9,27.4   c12.1,2.9,24.2,4.4,36.6,3.8c16.5-0.8,31.9-5.5,46.1-14.1c18-10.9,30.8-26.4,39.7-45.3c3.6-7.8,6.3-15.9,8-24.3   c1.2-6.3,1.9-12.5,2.1-18.9c0.3-10.2-0.8-20.1-3.4-30c-3.3-12.6-9-24.1-16.7-34.5c-6.8-9.1-14.7-17.1-24.3-23.3   c-13.5-8.8-28.4-13.8-44.5-14.8c-4.8-0.3-9.4-1.5-14.1-2.4c-1.5-0.3-2.9-0.1-4.4-0.2"/>
    <path fill="none" stroke="#000" stroke-width="10" stroke-linecap="round" stroke-linejoin="round" d="M488.9,110.9c4.6,4.6,8.7-0.5,8.7-0.5s0-8.2-5.6-6.1C486.3,106.3,488.9,110.9,488.9,110.9z"/>
    <path fill="none" stroke="#000" stroke-width="10" stroke-linecap="round" stroke-linejoin="round" d="M542.7,110.9c4.6,4.6,8.7-1,8.7-1s0-7.7-5.6-5.6C540.1,106.3,542.7,110.9,542.7,110.9z"/>
  </symbol>
  <symbol id="emoji-2" viewBox="570.9 300.3 236.4 236.4">
    <path fill="none" stroke="#000" stroke-width="10" stroke-linecap="round" stroke-linejoin="round" d="M685.5,524.7c2.2-1,4.6-0.6,6.9-0.7c20.5-1.4,38.9-8.2,55.2-20.8c13.3-10.3,22.7-23.6,29.6-38.8   c4.8-10.5,7.9-21.6,9.7-33c1.5-9.5,2.1-19.1,1.4-28.6c-1.5-22.1-8.5-41.9-24.4-58.1c-10.8-11-23.6-18.9-37.9-24.1   c-8.8-3.2-17.9-5-27.3-5.8c-4.3-0.4-8.5-0.4-12.8-0.4c-1.4,0-3-0.2-4-0.9c-1.8-1.2-3.7-1.2-5.7-1.2"/>
    <path fill="none" stroke="#000" stroke-width="10" stroke-linecap="round" stroke-linejoin="round" d="M652.3,315.7c-2.5-1-5.1-0.8-7.4,0.3c-16.7,8.1-29.8,20-39.4,36c-9,14.9-13.6,31.1-15.3,48.3   c-1,10.6-0.6,21.1,0.7,31.7c1.5,12.4,4.3,24.4,9,36c3.6,8.9,8.5,16.9,14.8,24.3c9.6,11.4,21.4,19.7,35.1,25.2   c9.5,3.8,19.3,6.1,29.6,6.5c1.9,0.1,4-0.3,5.9,0.7"/>
    <path fill="none" stroke="#000" stroke-width="10" stroke-linecap="round" stroke-linejoin="round" d="M735.6,470c0.2-1.9-0.3-3.4-1.7-4.9c-9.7-10.7-21.7-17.4-35.8-19.8c-13.3-2.2-26.1,0.1-38,6.5   c-6.8,3.7-12.6,8.4-17.6,14.3"/>
    <path fill="none" stroke="#000" stroke-width="10" stroke-linecap="round" stroke-linejoin="round" d="M665.6,372.5c-1.8-0.1-2.7,1.2-3.8,2.2c-5.7,4.9-11.3,9.8-16.9,14.8c-1.1,1-2.3,1.8-3.8,1.5"/>
    <path fill="none" stroke="#000" stroke-width="10" stroke-linecap="round" stroke-linejoin="round" d="M713.6,371.7c-0.1,1.5,1.2,2.1,2.1,2.8c6.6,5.3,12.8,11.1,19.1,16.6"/>
  </symbol>
  <symbol id="emoji-3" viewBox="962.0 280.9 232.3 232.3">
    <path fill="none" stroke="#000" stroke-width="10" stroke-linecap="round" stroke-linejoin="round" d="M1057.5,356.8c0.6-1.8,0.4-3.6,0-5.4c-1-4.1-5.5-6.4-9.7-5.1c-6,1.9-9.9,5.8-11.8,11.8c-1.7,5.3-2,10.6,0,15.9   c3,7.9,11.9,9.8,19.2,6.4c3.8-1.8,6.6-4.9,8.2-8.9c1.4-3.6,0.7-7.5-3.1-10.8c-1.1-1-2.3-1.9-2.6-3.6"/>
    <path fill="none" stroke="#000" stroke-width="10" stroke-linecap="round" stroke-linejoin="round" d="M1115.4,356.8c0.5-3.5,0.2-6.7-2.8-9.3c-2.6-2.2-7-2.1-11.3,0.6c-5.6,3.6-8.4,8.9-8.7,15.6   c-0.1,2.7,0,5.3,0.4,8c1.4,8.8,12.1,13.1,20.8,8.2c3.7-2.1,6-5.3,7.4-9.2c1.4-3.8-0.1-6.8-2.6-9.5c-1.2-1.3-2.8-2.3-3.3-4.1"/>
    <path fill="none" stroke="#000" stroke-width="10" stroke-linecap="round" stroke-linejoin="round" d="M1108,435.8c-4.9,0.3-9.7,0.4-14.6,0.9c-7.2,0.8-14.4,1.7-21.5,2.8c-4.7,0.7-9.4,1.9-14.1,2.7   c-1.1,0.2-2.2,0-3.3,0"/>
    <path fill="none" stroke="#000" stroke-width="10" stroke-linecap="round" stroke-linejoin="round" d="M1074.7,293.1c-3.5,0.4-7,1.2-10.5,1.2c-4.7-0.1-9,1.2-13.3,2.7c-11.4,3.9-21.6,9.9-31,17.4   c-21.5,17.3-35.4,39.5-42.5,66c-2.8,10.4-3.9,21-3.1,31.7c1.8,22.2,10.3,41.4,25.6,57.6c13.7,14.5,30.7,22.9,49.9,27.4   c12.1,2.9,24.2,4.4,36.6,3.8c16.5-0.8,31.9-5.5,46.1-14.1c18-10.9,30.8-26.4,39.7-45.3c3.6-7.8,6.3-15.9,8-24.3   c1.2-6.3,1.9-12.5,2.1-18.9c0.3-10.2-0.8-20.1-3.4-30c-3.3-12.6-9-24.1-16.7-34.5c-6.8-9.1-14.7-17.1-24.3-23.3   c-13.5-8.8-28.4-13.8-44.5-14.8c-4.8-0.3-9.4-1.5-14.1-2.4c-1.5-0.3-2.9-0.1-4.4-0.2"/>
    <path fill="none" stroke="#000" stroke-width="10" stroke-linecap="round" stroke-linejoin="round" d="M1055.5,353.5c-4.1,0-7.7,2-6.7,5.6s3.6,10.8,8.7,7.7s4.1-4.6,4.1-4.6"/>
    <path fill="none" stroke="#000" stroke-width="10" stroke-linecap="round" stroke-linejoin="round" d="M1115.4,353.5c-4.1,0-6.1,2-6.7,5.6c-0.5,3.7,3.6,10.8,8.7,7.7c5.1-3.1,4.1-4.6,4.1-4.6"/>
  </symbol>
  <symbol id="emoji-4" viewBox="789.8 37.8 232.3 232.3">
    <path fill="none" stroke="#000" stroke-width="10" stroke-linecap="round" stroke-linejoin="round" d="M964.7,193.5c-4.1,1.7-7.7,0.2-11-2c-3.5-2.3-6.1-5.7-9.2-8.4c-7.2-6.1-17-4.7-22.5,1.8   c-2.3,2.7-3,6.1-3.6,9.5c-0.6,3.1-0.6,6.4-1.5,9.5c-1.5,5.8-6.5,9.4-11.6,9.3c-4.6-0.1-9-0.1-13.3-1.9c-6-2.5-8.8-7.3-10.3-13.3   c-0.7-2.8-1.3-5.7-1.7-8.5c-1.3-10-10.3-10.1-16.2-5.1c-5.3,4.5-7.5,10.6-8.7,17.1c-0.2,0.8,0.1,1.7,0.2,2.6"/>
    <path fill="none" stroke="#000" stroke-width="10" stroke-linecap="round" stroke-linejoin="round" d="M951.4,106.3c0.9-4.8-0.8-7.8-6.1-10.8c-10.4-5.8-23.7-0.6-27.6,11c-2.2,6.3,1.1,14.2,7.7,18.1   c6.2,3.7,12.9,4.6,19.4,0.5c4.5-2.9,6.6-6.9,5.5-12.5c-0.4-2-0.4-4.2,0.9-6.1"/>
    <path fill="none" stroke="#000" stroke-width="10" stroke-linecap="round" stroke-linejoin="round" d="M875.8,127.8c3-0.2,5.9-0.7,8.7-2c6.7-3.2,11.1-9.9,10.1-16.4c-1.2-8.3-6.2-13.5-14.3-15.6   c-6.3-1.7-12.2-0.3-17.2,4.2c-2.2,2-2.9,4.4-2.4,6.9c0.7,3.3,0.9,6.7,0.6,10c-0.5,6,5.5,12.3,12.3,12.6c0.6,0,1.2,0.2,1.8,0.2"/>
    <path fill="none" stroke="#000" stroke-width="10" stroke-linecap="round" stroke-linejoin="round" d="M950.6,106.8c-2.4-0.2-4.5-1.1-6.7-2c-3.5-1.3-7-1.5-10.5,0.4c-1.9,1-3.1,2.5-3,4.6c0.1,2,1.1,3.7,3.3,4.4"/>
    <path fill="none" stroke="#000" stroke-width="10" stroke-linecap="round" stroke-linejoin="round" d="M861.3,106.3c2.8,0.1,5.3-1.1,7.9-1.8c3.7-1,7.4-1.2,10.5,1.8c1.3,1.2,2,2.6,1.3,4.3c-0.8,1.8-1.5,3.8-4.1,3.5   "/>
    <path fill="none" stroke="#000" stroke-width="10" stroke-linecap="round" stroke-linejoin="round" d="M902.5,50c-3.5,0.4-7,1.2-10.5,1.2c-4.7-0.1-9,1.2-13.3,2.7c-11.4,3.9-21.6,9.9-31,17.4   c-21.5,17.3-35.4,39.5-42.5,66c-2.8,10.4-3.9,21-3.1,31.7c1.8,22.2,10.3,41.4,25.6,57.6c13.7,14.5,30.7,22.9,49.9,27.4   c12.1,2.9,24.2,4.4,36.6,3.8c16.5-0.8,31.9-5.5,46.1-14.1c18-10.9,30.8-26.4,39.7-45.3c3.6-7.8,6.3-15.9,8-24.3   c1.2-6.3,1.9-12.5,2.1-18.9c0.3-10.2-0.8-20.1-3.4-30c-3.3-12.6-9-24.1-16.7-34.5c-6.8-9.1-14.7-17.1-24.3-23.3   c-13.5-8.8-28.4-13.8-44.5-14.8c-4.8-0.3-9.4-1.5-14.1-2.4c-1.5-0.3-2.9-0.1-4.4-0.2"/>
  </symbol>
  <symbol id="emoji-5" viewBox="1515.8 561.8 232.3 232.3">
    <path fill="none" stroke="#000" stroke-width="10" stroke-linecap="round" stroke-linejoin="round" d="M1677.4,630.3c0.9-4.8-0.8-7.8-6.1-10.8c-10.4-5.8-23.7-0.6-27.6,11c-2.2,6.3,1.1,14.2,7.7,18.1   c6.2,3.7,12.9,4.6,19.4,0.5c4.5-2.9,6.6-6.9,5.5-12.5c-0.4-2-0.4-4.2,0.9-6.1"/>
    <path fill="none" stroke="#000" stroke-width="10" stroke-linecap="round" stroke-linejoin="round" d="M1601.8,651.8c3-0.2,5.9-0.7,8.7-2c6.7-3.2,11.1-9.9,10.1-16.4c-1.2-8.3-6.2-13.5-14.3-15.6   c-6.3-1.7-12.2-0.3-17.2,4.2c-2.2,2-2.9,4.4-2.4,6.9c0.7,3.3,0.9,6.7,0.6,10c-0.5,6,5.5,12.3,12.3,12.6c0.6,0,1.2,0.2,1.8,0.2"/>
    <path fill="none" stroke="#000" stroke-width="10" stroke-linecap="round" stroke-linejoin="round" d="M1628.5,574c-3.5,0.4-7,1.2-10.5,1.2c-4.7-0.1-9,1.2-13.3,2.7c-11.4,3.9-21.6,9.9-31,17.4   c-21.5,17.3-35.4,39.5-42.5,66c-2.8,10.4-3.9,21-3.1,31.7c1.8,22.2,10.3,41.4,25.6,57.6c13.7,14.5,30.7,22.9,49.9,27.4   c12.1,2.9,24.2,4.4,36.6,3.8c16.5-0.8,31.9-5.5,46.1-14.1c18-10.9,30.8-26.4,39.7-45.3c3.6-7.8,6.3-15.9,8-24.3   c1.2-6.3,1.9-12.5,2.1-18.9c0.3-10.2-0.8-20.1-3.4-30c-3.3-12.6-9-24.1-16.7-34.5c-6.8-9.1-14.7-17.1-24.3-23.3   c-13.5-8.8-28.4-13.8-44.5-14.8c-4.8-0.3-9.4-1.5-14.1-2.4c-1.5-0.3-2.9-0.1-4.4-0.2"/>
    <path fill="none" stroke="#000" stroke-width="10" stroke-linecap="round" stroke-linejoin="round" d="M1575.6,723.5c0-3.1-0.1-6.3-0.1-9.4c0-1.1,0-2.3,0.5-3.3c0.8-1.8,2.9-2.6,4.8-2.9c6.5-0.9,13.4,2.8,19.6,0.5   c7.2-2.8,9.2-12.1,15.2-17c6.3-5.2,15.6-4.4,23.2-1.4c5.3,2.1,10.6,5.1,16.3,4.7c8.2-0.6,14.3-7.9,22.3-9.9c6.8-1.8,14.4,0.8,19,6   s6.4,12.8,5,19.6c-0.6,2.7-1.7,5.3-3.7,7.2c-4.9,4.5-12.8,2.6-18.8,5.2c-10,4.2-11.5,18.2-19.9,25c-1.4,1.1-3,2.3-3.1,4.1   c0,1,0.6,1.9,1.1,2.8c1.8,2.8,3.7,5.6,5.5,8.5c-12.1,5.8-26.9,3.8-38.7-2.6c-4.6-2.5-9-5.7-14.2-6.6c-5.7-1.1-11.6,0.8-17.4,0.3   c-8.4-0.7-16.2-6.8-18.9-14.8c-0.9-2.6-1.3-5.5-0.6-8.2c1.3-5,6-8.5,7.6-13.4"/>
    <path fill="none" stroke="#000" stroke-width="10" stroke-linecap="round" stroke-linejoin="round" d="M1591.3,631.8c2-0.4,4.5-0.7,5.5,1.1c0.3,0.6,0.5,1.2,0.5,1.9c0.1,2.5-1.1,5-3,6.6c-1.1-1.8-1.6-3.9-1.5-5.9   c0-0.4,0.1-0.7,0.3-1c0.4-0.6,1.3-0.6,1.9-0.3c1.6,0.6,2.6,2.3,2.5,4c-0.1,1.7-1.4,3.2-3.1,3.6"/>
    <path fill="none" stroke="#000" stroke-width="10" stroke-linecap="round" stroke-linejoin="round" d="M1647.6,632.4c4.5-1.5,9.9,0.3,12.6,4.3c0.2,0.3,0.4,0.6,0.3,0.9c0,0.4-0.4,0.7-0.7,0.9   c-1.5,0.9-3.7,0.7-5-0.5c-1.3-1.2-1.7-3.4-0.9-5c0.9,1,0.6,2.7-0.3,3.7c-0.9,1-2.1,1.6-3.4,2.2c-1.1-0.3-0.8-2.2,0.3-2.4   c1.1-0.2,2.1,0.8,2.2,1.9c0.1,1.1-0.3,2.2-0.8,3.2c-0.8-0.8-1.2-1.8-1.2-2.9c0-1.1,0.6-2.2,1.5-2.7c1-0.5,2.4-0.2,2.9,0.8   c0.5,1-0.2,2.4-1.3,2.5c-1.6-0.3-2.5-2.6-1.4-3.8"/>
  </symbol>
  <symbol id="emoji-6" viewBox="180.8 302.3 232.3 232.3">
    <path fill="none" stroke="#000" stroke-width="10" stroke-linecap="round" stroke-linejoin="round" d="M355.7,458c-4.1,1.7-7.7,0.2-11-2c-3.5-2.3-6.1-5.7-9.2-8.4c-7.2-6.1-17-4.7-22.5,1.8c-2.3,2.7-3,6.1-3.6,9.5   c-0.6,3.1-0.6,6.4-1.5,9.5c-1.5,5.8-6.5,9.4-11.6,9.3c-4.6-0.1-9-0.1-13.3-1.9c-6-2.5-8.8-7.3-10.3-13.3c-0.7-2.8-1.3-5.7-1.7-8.5   c-1.3-10-10.3-10.1-16.2-5.1c-5.3,4.5-7.5,10.6-8.7,17.1c-0.2,0.8,0.1,1.7,0.2,2.6"/>
    <path fill="none" stroke="#000" stroke-width="10" stroke-linecap="round" stroke-linejoin="round" d="M342.4,370.8c0.9-4.8-0.8-7.8-6.1-10.8c-10.4-5.8-23.7-0.6-27.6,11c-2.2,6.3,1.1,14.2,7.7,18.1   c6.2,3.7,12.9,4.6,19.4,0.5c4.5-2.9,6.6-6.9,5.5-12.5c-0.4-2-0.4-4.2,0.9-6.1"/>
    <path fill="none" stroke="#000" stroke-width="10" stroke-linecap="round" stroke-linejoin="round" d="M266.8,392.3c3-0.2,5.9-0.7,8.7-2c6.7-3.2,11.1-9.9,10.1-16.4c-1.2-8.3-6.2-13.5-14.3-15.6   c-6.3-1.7-12.2-0.3-17.2,4.2c-2.2,2-2.9,4.4-2.4,6.9c0.7,3.3,0.9,6.7,0.6,10c-0.5,6,5.5,12.3,12.3,12.6c0.6,0,1.2,0.2,1.8,0.2"/>
    <path fill="none" stroke="#000" stroke-width="10" stroke-linecap="round" stroke-linejoin="round" d="M341.6,371.3c-2.4-0.2-4.5-1.1-6.7-2c-3.5-1.3-7-1.5-10.5,0.4c-1.9,1-3.1,2.5-3,4.6c0.1,2,1.1,3.7,3.3,4.4"/>
    <path fill="none" stroke="#000" stroke-width="10" stroke-linecap="round" stroke-linejoin="round" d="M252.2,370.8c2.8,0.1,5.3-1.1,7.9-1.8c3.7-1,7.4-1.2,10.5,1.8c1.3,1.2,2,2.6,1.3,4.3c-0.8,1.8-1.5,3.8-4.1,3.5   "/>
    <path fill="none" stroke="#000" stroke-width="10" stroke-linecap="round" stroke-linejoin="round" d="M293.5,314.5c-3.5,0.4-7,1.2-10.5,1.2c-4.7-0.1-9,1.2-13.3,2.7c-11.4,3.9-21.6,9.9-31,17.4   c-21.5,17.3-35.4,39.5-42.5,66c-2.8,10.4-3.9,21-3.1,31.7c1.8,22.2,10.3,41.4,25.6,57.6c13.7,14.5,30.7,22.9,49.9,27.4   c12.1,2.9,24.2,4.4,36.6,3.8c16.5-0.8,31.9-5.5,46.1-14.1c18-10.9,30.8-26.4,39.7-45.3c3.6-7.8,6.3-15.9,8-24.3   c1.2-6.3,1.9-12.5,2.1-18.9c0.3-10.2-0.8-20.1-3.4-30c-3.3-12.6-9-24.1-16.7-34.5c-6.8-9.1-14.7-17.1-24.3-23.3   c-13.5-8.8-28.4-13.8-44.5-14.8c-4.8-0.3-9.4-1.5-14.1-2.4c-1.5-0.3-2.9-0.1-4.4-0.2"/>
  </symbol>
  <symbol id="emoji-7" viewBox="1341.8 821.3 232.3 232.3">
    <path fill="none" stroke="#000" stroke-width="10" stroke-linecap="round" stroke-linejoin="round" d="M1503.4,889.8c0.9-4.8-0.8-7.8-6.1-10.8c-10.4-5.8-23.7-0.6-27.6,11c-2.2,6.3,1.1,14.2,7.7,18.1   c6.2,3.7,12.9,4.6,19.4,0.5c4.5-2.9,6.6-6.9,5.5-12.5c-0.4-2-0.4-4.2,0.9-6.1"/>
    <path fill="none" stroke="#000" stroke-width="10" stroke-linecap="round" stroke-linejoin="round" d="M1427.8,911.3c3-0.2,5.9-0.7,8.7-2c6.7-3.2,11.1-9.9,10.1-16.4c-1.2-8.3-6.2-13.5-14.3-15.6   c-6.3-1.7-12.2-0.3-17.2,4.2c-2.2,2-2.9,4.4-2.4,6.9c0.7,3.3,0.9,6.7,0.6,10c-0.5,6,5.5,12.3,12.3,12.6c0.6,0,1.2,0.2,1.8,0.2"/>
    <path fill="none" stroke="#000" stroke-width="10" stroke-linecap="round" stroke-linejoin="round" d="M1502.6,890.3c-2.4-0.2-4.5-1.1-6.7-2c-3.5-1.3-7-1.5-10.5,0.4c-1.9,1-3.1,2.5-3,4.6c0.1,2,1.1,3.7,3.3,4.4"/>
    <path fill="none" stroke="#000" stroke-width="10" stroke-linecap="round" stroke-linejoin="round" d="M1413.2,889.8c2.8,0.1,5.3-1.1,7.9-1.8c3.7-1,7.4-1.2,10.5,1.8c1.3,1.2,2,2.6,1.3,4.3   c-0.8,1.8-1.5,3.8-4.1,3.5"/>
    <path fill="none" stroke="#000" stroke-width="10" stroke-linecap="round" stroke-linejoin="round" d="M1454.5,833.5c-3.5,0.4-7,1.2-10.5,1.2c-4.7-0.1-9,1.2-13.3,2.7c-11.4,3.9-21.6,9.9-31,17.4   c-21.5,17.3-35.4,39.5-42.5,66c-2.8,10.4-3.9,21-3.1,31.7c1.8,22.2,10.3,41.4,25.6,57.6c13.7,14.5,30.7,22.9,49.9,27.4   c12.1,2.9,24.2,4.4,36.6,3.8c16.5-0.8,31.9-5.5,46.1-14.1c18-10.9,30.8-26.4,39.7-45.3c3.6-7.8,6.3-15.9,8-24.3   c1.2-6.3,1.9-12.5,2.1-18.9c0.3-10.2-0.8-20.1-3.4-30c-3.3-12.6-9-24.1-16.7-34.5c-6.8-9.1-14.7-17.1-24.3-23.3   c-13.5-8.8-28.4-13.8-44.5-14.8c-4.8-0.3-9.4-1.5-14.1-2.4c-1.5-0.3-2.9-0.1-4.4-0.2"/>
    <path fill="none" stroke="#000" stroke-width="10" stroke-linecap="round" stroke-linejoin="round" d="M1411.8,956.3c-1.3,10.9-2.4,22.9,3.8,32c3.4,4.9,8.5,8.3,13.9,10.8c13.4,6.2,29.2,7.1,43.3,2.5   c14.1-4.6,26.3-14.6,33.5-27.5c3.8-6.7,6.2-14.7,4.2-22.1"/>
  </symbol>
  <symbol id="emoji-8" viewBox="1138.7 561.8 232.3 232.3">
    <path fill="none" stroke="#000" stroke-width="10" stroke-linecap="round" stroke-linejoin="round" d="M1312.9,701.8c0.5,1.7,0.1,3.3-0.7,4.9c-3.3,6.9-6.8,13.7-12.5,19.3c-5.7,5.5-12.4,8.3-20,9.7   c-6.9,1.3-13.8,0.5-20.7,0.4c-2.3,0-4.6-0.6-6.9-0.9"/>
    <path fill="none" stroke="#000" stroke-width="10" stroke-linecap="round" stroke-linejoin="round" d="M1280,612.5c-4.1,0.7-7.2,3.2-10.2,5.8c-2.9,2.5-5.5,5.4-7.2,8.9"/>
    <path fill="none" stroke="#000" stroke-width="10" stroke-linecap="round" stroke-linejoin="round" d="M1234.7,629.8c0.6-2.6-0.8-4.6-2.3-6.4c-4-4.7-8.4-8.8-14.3-11c-0.1-0.1-0.3,0.1-0.5,0.1"/>
    <path fill="none" stroke="#000" stroke-width="10" stroke-linecap="round" stroke-linejoin="round" d="M1285.2,647c-3.1,0-6.1,0-9.2,0"/>
    <path fill="none" stroke="#000" stroke-width="10" stroke-linecap="round" stroke-linejoin="round" d="M1213.2,647c2.4,0,4.8,0,7.4,0c0,3.1,0,6.1,0,9.2"/>
    <path fill="none" stroke="#000" stroke-width="10" stroke-linecap="round" stroke-linejoin="round" d="M1274.7,647c1.5-0.1,1.3,0.9,1.3,1.8c0,2.5,0,5,0,7.4"/>
    <path fill="none" stroke="#000" stroke-width="10" stroke-linecap="round" stroke-linejoin="round" d="M1251.4,574c-3.5,0.4-7,1.2-10.5,1.2c-4.7-0.1-9,1.2-13.3,2.7c-11.4,3.9-21.6,9.9-31,17.4   c-21.5,17.3-35.4,39.5-42.5,66c-2.8,10.4-3.9,21-3.1,31.7c1.8,22.2,10.3,41.4,25.6,57.6c13.7,14.5,30.7,22.9,49.9,27.4   c12.1,2.9,24.2,4.4,36.6,3.8c16.5-0.8,31.9-5.5,46.1-14.1c18-10.9,30.8-26.4,39.7-45.3c3.6-7.8,6.3-15.9,8-24.3   c1.2-6.3,1.9-12.5,2.1-18.9c0.3-10.2-0.8-20.1-3.4-30c-3.3-12.6-9-24.1-16.7-34.5c-6.8-9.1-14.7-17.1-24.3-23.3   c-13.5-8.8-28.4-13.8-44.5-14.8c-4.8-0.3-9.4-1.5-14.1-2.4c-1.5-0.3-2.9-0.1-4.4-0.2"/>
    <circle fill="none" stroke="#000" stroke-width="10" stroke-linecap="round" stroke-linejoin="round" cx="1220.4" cy="646.7" r="2.6"/>
    <circle fill="none" stroke="#000" stroke-width="10" stroke-linecap="round" stroke-linejoin="round" cx="1274.7" cy="646.7" r="2.6"/>
  </symbol>
  <symbol id="emoji-9" viewBox="-126.3 829.8 232.3 232.3">
    <path fill="none" stroke="#000" stroke-width="10" stroke-linecap="round" stroke-linejoin="round" d="M17.5,1005c-0.4,1.7-1.4,3-2.7,4.1c-6.1,4.7-12.2,9.3-19.7,11.7c-7.5,2.4-14.8,2-22.2-0.2   c-6.8-1.9-12.6-5.7-18.8-8.8c-2.1-1-3.9-2.5-5.8-3.8"/>
    <path fill="none" stroke="#000" stroke-width="10" stroke-linecap="round" stroke-linejoin="round" d="M17.3,884.7c-4-1-7.9,0-11.7,1.2c-3.6,1.1-7.2,2.7-10.2,5.2"/>
    <path fill="none" stroke="#000" stroke-width="10" stroke-linecap="round" stroke-linejoin="round" d="M-28,894.7c-0.2-2.7-2.2-4.1-4.2-5.4c-5.2-3.2-10.8-5.7-17.1-6c-0.1,0-0.3,0.2-0.4,0.3"/>
    <path fill="none" stroke="#000" stroke-width="10" stroke-linecap="round" stroke-linejoin="round" d="M22.7,932c1.5-0.1,1.3,0.9,1.3,1.8c0,2.5,0,5,0,7.4"/>
    <path fill="none" stroke="#000" stroke-width="10" stroke-linecap="round" stroke-linejoin="round" d="M-13.6,842c-3.5,0.4-7,1.2-10.5,1.2c-4.7-0.1-9,1.2-13.3,2.7c-11.4,3.9-21.6,9.9-31,17.4   c-21.5,17.3-35.4,39.5-42.5,66c-2.8,10.4-3.9,21-3.1,31.7c1.8,22.2,10.3,41.4,25.6,57.6c13.7,14.5,30.7,22.9,49.9,27.4   c12.1,2.9,24.2,4.4,36.6,3.8c16.5-0.8,31.9-5.5,46.1-14.1c18-10.9,30.8-26.4,39.7-45.3c3.6-7.8,6.3-15.9,8-24.3   c1.2-6.3,1.9-12.5,2.1-18.9c0.3-10.2-0.8-20.1-3.4-30c-3.3-12.6-9-24.1-16.7-34.5c-6.8-9.1-14.7-17.1-24.3-23.3   c-13.5-8.8-28.4-13.8-44.5-14.8c-4.8-0.3-9.4-1.5-14.1-2.4c-1.5-0.3-2.9-0.1-4.4-0.2"/>
    <path fill="none" stroke="#000" stroke-width="10" stroke-linecap="round" stroke-linejoin="round" d="M-53.8,935.1c0,0.9,0,1.9,0,2.8"/>
    <path fill="none" stroke="#000" stroke-width="10" stroke-linecap="round" stroke-linejoin="round" d="M-55.4,954.1c0,0.9,0,1.9,0,2.8"/>
    <path fill="none" stroke="#000" stroke-width="10" stroke-linecap="round" stroke-linejoin="round" d="M-55.4,970.3c0,1.1,0,2.2,0,3.3"/>
    <path fill="none" stroke="#000" stroke-width="10" stroke-linecap="round" stroke-linejoin="round" d="M27.3,960.1c0,0.6,0,1.1,0,1.7"/>
    <path fill="none" stroke="#000" stroke-width="10" stroke-linecap="round" stroke-linejoin="round" d="M31.9,975.9c0,0.6,0,1.1,0,1.7"/>
    <circle fill="none" stroke="#000" stroke-width="10" stroke-linecap="round" stroke-linejoin="round" cx="-44.6" cy="914.7" r="2.6"/>
    <circle fill="none" stroke="#000" stroke-width="10" stroke-linecap="round" stroke-linejoin="round" cx="9.7" cy="914.7" r="2.6"/>
  </symbol>
  <symbol id="emoji-10" viewBox="381.5 570.8 230.3 230.3">
    <path fill="none" stroke="#000" stroke-width="10" stroke-linecap="round" stroke-linejoin="round" d="M397.6,688.5c0,23.3,7.6,44,21.5,62.5c8.5,11.2,18.8,20.4,31.2,27.2c8.1,4.4,16.7,7.3,25.9,9    c8.7,1.6,17.6,2.1,26.4,1.7c12.2-0.6,24-3,35.1-8.2c21.1-9.8,36.6-25.7,47.3-46.1c6.1-11.6,9.3-24.2,10.4-37.3    c1.4-16.1-0.9-31.6-7-46.6c-7-17.3-17.9-31.6-32.5-43.3c-12.3-9.9-26.2-16.5-41.5-20.1c-5.6-1.4-11.3-2.2-17.1-2.5    c-3.7-0.1-7.4-1.1-11.1-1.7c-2.7-0.5-5.5-0.5-8.1,0.3c-11.6,3.6-22.2,9.3-32,16.3c-20.7,14.7-35.4,34-43.7,57.9    c-2.3,6.5-3.6,13.3-4.3,20.2c-0.4,3.5,0.1,7-0.6,10.5"/>
    <path fill="none" stroke="#000" stroke-width="10" stroke-linecap="round" stroke-linejoin="round" d="M523.6,737.9c-3.6,0.6-7.2-0.5-10.8-0.8c-2.8-0.2-5.6-0.7-8.5-0.7c-10.9-0.3-21.8,0.3-32.5,2.5    c-1.2,0.2-2.6-0.2-3.8-0.3"/>
    <path fill="none" stroke="#000" stroke-width="10" stroke-linecap="round" stroke-linejoin="round" d="M543.6,636.9c-0.8-0.3-1.5-0.3-2.4-0.8c-6.1-4.3-13.1-6.6-20.4-7.7c-2.3-0.3-4.8-0.1-7.2-0.2"/>
    <path fill="none" stroke="#000" stroke-width="10" stroke-linecap="round" stroke-linejoin="round" d="M475.5,628.2c-5.4,0-10.9,0.2-16.1,1.9c-4.1,1.3-7.7,3.3-11.5,5.1c-2.2,1.1-1.7,3-1.8,4.9"/>
    <path fill="none" stroke="#000" stroke-width="10" stroke-linecap="round" stroke-linejoin="round" d="M464.5,646.5c-6.8,1-11.2,5-13.2,11.3c-3,8.9,0.2,19.5,10.5,23.2c7.4,2.7,17-1.2,20.4-9.2    c3.7-8.6,1.4-20-9.5-24.3c-2.5-1-5.2-1.3-7.9-1.1"/>
    <path fill="none" stroke="#000" stroke-width="10" stroke-linecap="round" stroke-linejoin="round" d="M519.2,646.5c-6.3,1.4-10.7,5-12.8,11.3c-3.3,9.7,1.3,20.8,10.3,23.2c8.8,2.3,18.8-1.6,21.4-12.2    c2.7-10.7-3.2-20.1-13.5-22c-1.7-0.3-3.4-0.1-5.1-0.2"/>
    <circle fill="none" stroke="#000" stroke-width="10" stroke-linecap="round" stroke-linejoin="round" cx="467.8" cy="665.0" r="0.5"/>
    <circle fill="none" stroke="#000" stroke-width="10" stroke-linecap="round" stroke-linejoin="round" cx="520.0" cy="665.0" r="0.5"/>
  </symbol>
  <symbol id="emoji-11" viewBox="1846.0 543.8 251.2 251.2">
    <path fill="none" stroke="#000" stroke-width="10" stroke-linecap="round" stroke-linejoin="round" d="M1872.6,682.5c0,23.3,7.6,44,21.5,62.5c8.5,11.2,18.8,20.4,31.2,27.2c8.1,4.4,16.7,7.3,25.9,9   c8.7,1.6,17.6,2.1,26.4,1.7c12.2-0.6,24-3,35.1-8.2c21.1-9.8,36.6-25.7,47.3-46.1c6.1-11.6,9.3-24.2,10.4-37.3   c1.4-16.1-0.9-31.6-7-46.6c-7-17.3-17.9-31.6-32.5-43.3c-12.3-9.9-26.2-16.5-41.5-20.1c-5.6-1.4-11.3-2.2-17.1-2.5   c-3.7-0.1-7.4-1.1-11.1-1.7c-2.7-0.5-5.5-0.5-8.1,0.3c-11.6,3.6-22.2,9.3-32,16.3c-20.7,14.7-35.4,34-43.7,57.9   c-2.3,6.5-3.6,13.3-4.3,20.2c-0.4,3.5,0.1,7-0.6,10.5"/>
    <path fill="none" stroke="#000" stroke-width="10" stroke-linecap="round" stroke-linejoin="round" d="M1939.5,640.5c-6.8,1-11.2,5-13.2,11.3c-3,8.9,0.2,19.5,10.5,23.2c7.4,2.7,17-1.2,20.4-9.2   c3.7-8.6,1.4-20-9.5-24.3c-2.5-1-5.2-1.3-7.9-1.1"/>
    <path fill="none" stroke="#000" stroke-width="10" stroke-linecap="round" stroke-linejoin="round" d="M1994.2,640.5c-6.3,1.4-10.7,5-12.8,11.3c-3.3,9.7,1.3,20.8,10.3,23.2c8.8,2.3,18.8-1.6,21.4-12.2   c2.7-10.7-3.2-20.1-13.5-22c-1.7-0.3-3.4-0.1-5.1-0.2"/>
    <path fill="none" stroke="#000" stroke-width="10" stroke-linecap="round" stroke-linejoin="round" d="M1905.7,700.5c4.8,4.2,9.9,8,15.5,11.1c31.5,18.1,74.4,13.8,101.7-10.2c4.8-4.3,9.9-9.4,16.4-9.4   c8.2-0.1,14.3,8.8,13.9,17c-0.4,8.2-5.5,15.4-11.1,21.3c-27,28.8-70.9,39.2-109,28.8c-8.2-2.2-16.5-5.6-22.1-12   c-4.9-5.5-7.3-12.8-8.7-20.1c-1.2-6-1.8-12.3,0.3-18c2.1-5.7,7.7-10.5,13.8-9.9"/>
    <path fill="none" stroke="#000" stroke-width="10" stroke-linecap="round" stroke-linejoin="round" d="M1926.8,559.3c0,8.9,0.7,17.7,2.1,26.5"/>
    <path fill="none" stroke="#000" stroke-width="10" stroke-linecap="round" stroke-linejoin="round" d="M1944.9,555.8c0,8.6,0,17.2,0,25.8"/>
    <path fill="none" stroke="#000" stroke-width="10" stroke-linecap="round" stroke-linejoin="round" d="M1972.9,555.8c-0.7,7-0.3,14.1,1.2,21"/>
    <circle fill="none" stroke="#000" stroke-width="10" stroke-linecap="round" stroke-linejoin="round" cx="1942.8" cy="659.0" r="0.5"/>
    <circle fill="none" stroke="#000" stroke-width="10" stroke-linecap="round" stroke-linejoin="round" cx="1995.0" cy="659.0" r="0.5"/>
  </symbol>
  <symbol id="emoji-12" viewBox="16.5 25.5 232.3 232.3">
    <path fill="none" stroke="#000" stroke-width="10" stroke-linecap="round" stroke-linejoin="round" d="M171.1,180.6c-2.1,3.9-5.4,6.6-9.2,8.7c-4.9,2.7-9.9,5-15.6,5.4c-7,0.5-12.8-2.4-18.7-5.6   c-4.5-2.4-8.9-5.1-14.1-6.2c-6.2-1.3-11.9-0.6-17.5,2.3c-1.7,0.9-2.2,2-2,3.7"/>
    <path fill="none" stroke="#000" stroke-width="10" stroke-linecap="round" stroke-linejoin="round" d="M168.1,86.1c6.6,0.1,10.6,4.3,14.1,9.2c0.9,1.2,1.6,2.6,1.9,4.1"/>
    <path fill="none" stroke="#000" stroke-width="10" stroke-linecap="round" stroke-linejoin="round" d="M101.1,84c0.6,1.8-0.5,2.2-1.9,2.9c-5.6,2.5-9.7,6.5-11.7,12.5"/>
    <path fill="none" stroke="#000" stroke-width="10" stroke-linecap="round" stroke-linejoin="round" d="M129.2,37.7c-3.5,0.4-7,1.2-10.5,1.2c-4.7-0.1-9,1.2-13.3,2.7c-11.4,3.9-21.6,9.9-31,17.4   C52.9,76.2,39,98.4,31.9,125c-2.8,10.4-3.9,21-3.1,31.7c1.8,22.2,10.3,41.4,25.6,57.6c13.7,14.5,30.7,22.9,49.9,27.4   c12.1,2.9,24.2,4.4,36.6,3.8c16.5-0.8,31.9-5.5,46.1-14.1c18-10.9,30.8-26.4,39.7-45.3c3.6-7.8,6.3-15.9,8-24.3   c1.2-6.3,1.9-12.5,2.1-18.9c0.3-10.2-0.8-20.1-3.4-30c-3.3-12.6-9-24.1-16.7-34.5c-6.8-9.1-14.7-17.1-24.3-23.3   c-13.5-8.8-28.4-13.8-44.5-14.8c-4.8-0.3-9.4-1.5-14.1-2.4c-1.5-0.3-2.9-0.1-4.4-0.2"/>
    <circle fill="none" stroke="#000" stroke-width="10" stroke-linecap="round" stroke-linejoin="round" cx="102.8" cy="115.5" r="4.6"/>
    <circle fill="none" stroke="#000" stroke-width="10" stroke-linecap="round" stroke-linejoin="round" cx="165.3" cy="115.5" r="4.6"/>
  </symbol>
  <symbol id="emoji-13" viewBox="1181.2 45.5 232.3 232.3">
    <path fill="none" stroke="#000" stroke-width="10" stroke-linecap="round" stroke-linejoin="round" d="M1268.9,188.3c-5.5-0.3-9.7,2.4-13,6.4c-2.7,3.3-4.2,6.9-1.5,11c0.4,0.6-0.1,1-0.1,1.6   c0.1,1.7,0.4,3.4,1.6,4.6c3.3,3.1,6.8,5.9,11.8,5.9c0.3,0,0.8,0,1,0.3c4,4,9.4,4.1,14.4,5.3c2.3,0.6,4.7,0.8,7.2,0.1   c1.7-0.4,3.4,1,5.3,1c4.2,0,8.4-0.4,12.5-0.6c1.1,0,1.9-0.6,2.8-1c0.7-0.3,1.6-0.8,2.3-0.7c6,0.6,11.6-0.8,16.9-3.7   c0.6-0.3,1.2-0.4,1.8-0.5c6.4-0.6,11-3.8,14.1-9.5c1.3-2.3,1.3-4.4,0-6.7c-0.2-0.4-0.5-0.9-0.5-1.3c0.5-4.5-2.5-6.6-5.7-8.7   c-3.4-2.3-6.9-4.6-11.3-4.1c-0.5,0.1-0.7-0.2-1-0.5c-2.9-2.8-6.8-3.3-10.5-3.7c-3.1-0.4-6.3-1.7-9.5,0.1c-0.5,0.3-1.5-0.6-2.3-0.7   c-4.5-0.5-9.2-1.1-13.5,0.2c-3.5,1.1-6.9,0.1-10.3,1c-4.2,1.2-8.8,0.9-12.3,4.1"/>
    <path fill="none" stroke="#000" stroke-width="10" stroke-linecap="round" stroke-linejoin="round" d="M1253.5,104c6.1,5.5,12.1,11.2,18.2,16.6c1.2,1.1,1.6,2.2,1.5,3.6"/>
    <path fill="none" stroke="#000" stroke-width="10" stroke-linecap="round" stroke-linejoin="round" d="M1343.4,104.3c-6,5.5-11.9,11-18,16.3c-1.3,1.1-1.6,2.2-1.5,3.6"/>
    <path fill="none" stroke="#000" stroke-width="10" stroke-linecap="round" stroke-linejoin="round" d="M1288.3,184.4c0.4,1.5,0.6,3.1,0.5,4.6c-0.4,7.5,0.9,14.8,1.1,22.3c0.1,3.9,1.4,7.8,0.7,11.8"/>
    <path fill="none" stroke="#000" stroke-width="10" stroke-linecap="round" stroke-linejoin="round" d="M1308.3,202.6c-2.7,0.7-5.5,0.7-8.2,0.7c-7.9,0.1-15.7,0.6-23.6,0.8c-2,0.1-4.1-0.1-6.1-0.2"/>
    <path fill="none" stroke="#000" stroke-width="10" stroke-linecap="round" stroke-linejoin="round" d="M1307.3,183.9c0.2,5.5,0.7,10.9,1.2,16.4c0.5,5.6,2.1,11.1,3.2,16.7c0.3,1.7,0.5,3.4,0.8,5.1"/>
    <path fill="none" stroke="#000" stroke-width="10" stroke-linecap="round" stroke-linejoin="round" d="M1345.2,200.8c-4.1,1.7-8.5,1.5-12.8,1.5c-7.7,0-15.4,0.3-23,1.1"/>
    <path fill="none" stroke="#000" stroke-width="10" stroke-linecap="round" stroke-linejoin="round" d="M1269.4,188.5c1.4,3.5,0.4,7.2,0.4,10.8c0,1.7,1.2,3.6-0.2,5.1c-1.4,1.5-3.4,0.2-5.1,0.4   c-3.2,0.4-6.5-0.1-9.7,0.9"/>
    <path fill="none" stroke="#000" stroke-width="10" stroke-linecap="round" stroke-linejoin="round" d="M1293.9,57.7c-3.5,0.4-7,1.2-10.5,1.2c-4.7-0.1-9,1.2-13.3,2.7c-11.4,3.9-21.6,9.9-31,17.4   c-21.5,17.3-35.4,39.5-42.5,66c-2.8,10.4-3.9,21-3.1,31.7c1.8,22.2,10.3,41.4,25.6,57.6c13.7,14.5,30.7,22.9,49.9,27.4   c12.1,2.9,24.2,4.4,36.6,3.8c16.5-0.8,31.9-5.5,46.1-14.1c18-10.9,30.8-26.4,39.7-45.3c3.6-7.8,6.3-15.9,8-24.3   c1.2-6.3,1.9-12.5,2.1-18.9c0.3-10.2-0.8-20.1-3.4-30c-3.3-12.6-9-24.1-16.7-34.5c-6.8-9.1-14.7-17.1-24.3-23.3   c-13.5-8.8-28.4-13.8-44.5-14.8c-4.8-0.3-9.4-1.5-14.1-2.4c-1.5-0.3-2.9-0.1-4.4-0.2"/>
    <circle fill="none" stroke="#000" stroke-width="10" stroke-linecap="round" stroke-linejoin="round" cx="1268.1" cy="140.1" r="3.6"/>
    <circle fill="none" stroke="#000" stroke-width="10" stroke-linecap="round" stroke-linejoin="round" cx="1328.0" cy="140.1" r="3.6"/>
  </symbol>
  <symbol id="emoji-14" viewBox="4.2 554.7 230.3 230.3">
    <path fill="none" stroke="#000" stroke-width="10" stroke-linecap="round" stroke-linejoin="round" d="M20.3,672.4c0,23.3,7.6,44,21.5,62.5c8.5,11.2,18.8,20.4,31.2,27.2c8.1,4.4,16.7,7.3,25.9,9   c8.7,1.6,17.6,2.1,26.4,1.7c12.2-0.6,24-3,35.1-8.2c21.1-9.8,36.6-25.7,47.3-46.1c6.1-11.6,9.3-24.2,10.4-37.3   c1.4-16.1-0.9-31.6-7-46.6c-7-17.3-17.9-31.6-32.5-43.3c-12.3-9.9-26.2-16.5-41.5-20.1c-5.6-1.4-11.3-2.2-17.1-2.5   c-3.7-0.1-7.4-1.1-11.1-1.7c-2.7-0.5-5.5-0.5-8.1,0.3c-11.6,3.6-22.2,9.3-32,16.3c-20.7,14.7-35.4,34-43.7,57.9   c-2.3,6.5-3.6,13.3-4.3,20.2c-0.4,3.5,0.1,7-0.6,10.5"/>
    <path fill="none" stroke="#000" stroke-width="10" stroke-linecap="round" stroke-linejoin="round" d="M108.2,636.6c-2.8,0.2-4.6,4.5-7.4,5.6c-3.3,1.3-7.9-2.7-11.1-5.8c-1.7-1.7-4.1-2.2-6.6-2.1   c-6,0.2-11.9,0.2-17.9,0.3"/>
    <path fill="none" stroke="#000" stroke-width="10" stroke-linecap="round" stroke-linejoin="round" d="M161.4,703.6c0.7,1.6-0.3,2.5-1.3,3.6c-9.7,10.6-21.7,16.7-35.6,19.7c-0.6,0.1-1.3-0.3-1.8,0.3"/>
    <path fill="none" stroke="#000" stroke-width="10" stroke-linecap="round" stroke-linejoin="round" d="M162.2,636.7c-0.5,3.5-5.1,5.5-9.2,1.6c-0.6-0.6-1.2-0.8-1.8-1.2c-2.6-1.8-5.4-3-8.7-2.9   c-6.7,0.2-13.3,0.2-20,0.3"/>
    <path fill="none" stroke="#000" stroke-width="10" stroke-linecap="round" stroke-linejoin="round" d="M83.8,634c5.1,0,33.8-2.6,22.5,2.6"/>
    <path fill="none" stroke="#000" stroke-width="10" stroke-linecap="round" stroke-linejoin="round" d="M141.7,634c5.1,0,33.8-2.6,22.5,2.6"/>
  </symbol>
  <symbol id="emoji-15" viewBox="768.3 573.1 225.6 225.6">
    <path fill="none" stroke="#000" stroke-width="10" stroke-linecap="round" stroke-linejoin="round" d="M839.5,684.3c0,0.1,0.1,0.2,0.1,0.2c-0.8,2,1.1,4,0.6,5.6c-0.6,1.6-2.2,3.1-2,5c0.3,4.1,0.8,8.1,1.5,12.1   c1.4,7.7,4.1,14.9,9.2,21c6.2,7.4,13.8,12.7,23.2,15.5c5.8,1.7,11.7,2.3,17.6,1.8c9.1-0.8,17.4-4.2,24.8-9.6   c12.4-9,19.9-21.2,24.2-35.7c0.3-1,0.6-2.3,0.2-3.2c-1.7-3.9,0.2-7.1,1.6-10.4c0.7-1.9,1.3-3.7,0.7-5.7"/>
    <path fill="none" stroke="#000" stroke-width="10" stroke-linecap="round" stroke-linejoin="round" d="M840.6,690.2c4.6,1.6,8,5.2,12.1,7.7c9.7,5.9,20,10.4,31.3,12c14.6,2,28.6,0,41.1-8.6c2.4-1.7,4.9-3.3,6.9-5.5   c1.5-1.5,3.3-2.4,5.4-2.7"/>
    <path fill="none" stroke="#000" stroke-width="10" stroke-linecap="round" stroke-linejoin="round" d="M826.1,656c-0.5,1.6-1.6,2.1-3.1,2.5c-4.2,1.3-9,7.3-9.2,11.1c-0.2,3.2,1.7,4.5,4.3,5.7c1.9,0.8,4,0,5.7-2   c2.5-3,3.4-11.5,1.5-15.1"/>
    <path fill="none" stroke="#000" stroke-width="10" stroke-linecap="round" stroke-linejoin="round" d="M944.6,646.9c-2.6,5.2-0.9,10.1,1.3,14.8c1.2,2.5,4.3,2.7,7.1,1.3c2.7-1.4,3.7-3.5,2.7-6.4   c-1.7-4.7-5-8.1-9.9-9.6c-2.2-0.7-2.2-2.5-2.6-4.2"/>
    <path fill="none" stroke="#000" stroke-width="10" stroke-linecap="round" stroke-linejoin="round" d="M931.8,631.4c-2.2,0.4-3.7-1.2-5.7-1.6c-7.3-1.5-14.2-0.2-20.8,3c-2.4,1.1-4.5,2.8-7.2,3.2"/>
    <path fill="none" stroke="#000" stroke-width="10" stroke-linecap="round" stroke-linejoin="round" d="M839.6,639.4c0.9,0.2,1.4-0.4,2-1c3.1-3,6.9-4.1,11.1-4.3c5.9-0.2,11.5,0.6,16.9,3c0.5,0.2,1.1,0.2,1.7,0.3"/>
    <path fill="none" stroke="#000" stroke-width="10" stroke-linecap="round" stroke-linejoin="round" d="M877.8,585.4c-3.4,0.4-6.8,1.2-10.2,1.1c-4.5-0.1-8.7,1.2-12.9,2.6c-11,3.8-20.9,9.5-30,16.8   c-20.8,16.7-34.2,38.2-41.1,63.9c-2.7,10.1-3.8,20.3-3,30.7c1.7,21.5,10,40.1,24.8,55.7c13.2,14,29.7,22.1,48.3,26.5   c11.7,2.8,23.4,4.2,35.4,3.7c16-0.8,30.9-5.3,44.6-13.6c17.4-10.5,29.8-25.5,38.4-43.8c3.5-7.5,6.1-15.4,7.7-23.5   c1.2-6.1,1.9-12.1,2.1-18.3c0.3-9.8-0.7-19.5-3.3-29c-3.2-12.2-8.7-23.3-16.2-33.4c-6.6-8.8-14.3-16.5-23.5-22.5   c-13.1-8.5-27.5-13.4-43.1-14.3c-4.6-0.3-9.1-1.5-13.6-2.3c-1.4-0.3-2.8-0.1-4.2-0.2"/>
  </symbol>
  <symbol id="emoji-16" viewBox="1331.9 305.7 225.9 225.9">
    <path fill="none" stroke="#000" stroke-width="10" stroke-linecap="round" stroke-linejoin="round" d="M1385.2,335.5c-2.4-0.1-4.4,1-6.1,2.5c-6.1,5.3-11.4,11.2-15.5,18.3c-7.6,13.1-12.1,27.2-14.9,42   c-2,10.9-2.3,22-1.8,33c0.5,12.2,2.8,24.1,7.5,35.4c6.8,16.5,18,29.3,33.2,38.5c11.2,6.8,23.3,11.1,36.4,13.1   c7.2,1.1,14.5,1.5,21.7,1.1c14.9-1,29.1-4.8,42.3-11.9c12.8-6.9,23.5-16.3,32.2-27.9c9.7-12.8,16.2-27.1,19.8-42.7   c2.9-12.7,3.7-25.6,2.5-38.6c-1.3-13.7-4.9-26.6-11.8-38.6c-8.9-15.4-21.8-26.1-38-33.3c-8-3.5-16.2-6-24.7-7.4   c-6.9-1.1-13.9-1.6-21-1.2c-6.8,0.4-13.5,1.1-20.3,2.3c-10.4,1.8-20.8,3.8-30.3,8.8c-3.8,2-7.5,4.1-11,6.6"/>
    <path fill="none" stroke="#000" stroke-width="10" stroke-linecap="round" stroke-linejoin="round" d="M1430.6,381.4c-2.4,0.1-4.3-0.4-5.9-2.6c-2-2.9-5.5-4-8.7-5.2c-3.9-1.5-7.8-3-12-3.3"/>
    <path fill="none" stroke="#000" stroke-width="10" stroke-linecap="round" stroke-linejoin="round" d="M1453.8,378.8c2.3-0.7,4.2-0.3,6.2,1.5c3.4,3.1,8.2,4.1,12.2,6.4c2.3,1.3,5,2.1,7.3,3.4   c0.7,0.4,1.8,0.2,2.7,0.3"/>
    <path fill="none" stroke="#000" stroke-width="10" stroke-linecap="round" stroke-linejoin="round" d="M1426.2,381.1c-1.8,1.6-3.8,2.9-6.1,3.7c-5.5,1.9-10.7,4.4-15.4,8"/>
    <path fill="none" stroke="#000" stroke-width="10" stroke-linecap="round" stroke-linejoin="round" d="M1476.8,367.2c-5.1,1.7-9.8,4.4-14.6,6.9c-1.7,0.9-3.3,2.4-4.2,4.3"/>
    <path fill="none" stroke="#000" stroke-width="10" stroke-linecap="round" stroke-linejoin="round" d="M1442.4,446.1c-4.2,0.8-7.8,2.5-10.2,6.1c-4.3,6.5-2.1,20,10,21.2c9.8,1,15.8-5.3,16.3-13.4   c0.4-7.3-4.4-13.7-13.6-13.9c-0.7,0-1.5,0-2.2,0"/>
  </symbol>
  <symbol id="emoji-17" viewBox="-146.1 305.7 225.9 225.9">
    <path fill="none" stroke="#000" stroke-width="10" stroke-linecap="round" stroke-linejoin="round" d="M-92.8,335.5c-2.4-0.1-4.4,1-6.1,2.5c-6.1,5.3-11.4,11.2-15.5,18.3c-7.6,13.1-12.1,27.2-14.9,42   c-2,10.9-2.3,22-1.8,33c0.5,12.2,2.8,24.1,7.5,35.4c6.8,16.5,18,29.3,33.2,38.5c11.2,6.8,23.3,11.1,36.4,13.1   c7.2,1.1,14.5,1.5,21.7,1.1c14.9-1,29.1-4.8,42.3-11.9c12.8-6.9,23.5-16.3,32.2-27.9c9.7-12.8,16.2-27.1,19.8-42.7   c2.9-12.7,3.7-25.6,2.5-38.6c-1.3-13.7-4.9-26.6-11.8-38.6c-8.9-15.4-21.8-26.1-38-33.3c-8-3.5-16.2-6-24.7-7.4   c-6.9-1.1-13.9-1.6-21-1.2c-6.8,0.4-13.5,1.1-20.3,2.3c-10.4,1.8-20.8,3.8-30.3,8.8c-3.8,2-7.5,4.1-11,6.6"/>
    <path fill="none" stroke="#000" stroke-width="10" stroke-linecap="round" stroke-linejoin="round" d="M-47.4,381.4c-2.4,0.1-4.3-0.4-5.9-2.6c-2-2.9-5.5-4-8.7-5.2c-3.9-1.5-7.8-3-12-3.3"/>
    <path fill="none" stroke="#000" stroke-width="10" stroke-linecap="round" stroke-linejoin="round" d="M-24.2,378.8c2.3-0.7,4.2-0.3,6.2,1.5c3.4,3.1,8.2,4.1,12.2,6.4c2.3,1.3,5,2.1,7.3,3.4   c0.7,0.4,1.8,0.2,2.7,0.3"/>
    <path fill="none" stroke="#000" stroke-width="10" stroke-linecap="round" stroke-linejoin="round" d="M-51.8,381.1c-1.8,1.6-3.8,2.9-6.1,3.7c-5.5,1.9-10.7,4.4-15.4,8"/>
    <path fill="none" stroke="#000" stroke-width="10" stroke-linecap="round" stroke-linejoin="round" d="M-1.2,367.2c-5.1,1.7-9.8,4.4-14.6,6.9c-1.7,0.9-3.3,2.4-4.2,4.3"/>
    <path fill="none" stroke="#000" stroke-width="10" stroke-linecap="round" stroke-linejoin="round" d="M-89.7,433.6c-3.6,8.9-1.8,19.3,3.2,27.5c5,8.1,12.9,14.2,21.4,18.6c10.3,5.4,21.8,8.7,33.4,8.1   c12.9-0.7,25.5-6.3,34.6-15.5s14.5-21.9,14.9-34.8"/>
    <path fill="none" stroke="#000" stroke-width="10" stroke-linecap="round" stroke-linejoin="round" d="M12,426.5c0,3,0,5.9,0,8.9c0,1.3,0.3,2.8,1.5,3.1c0.7,0.2,1.4-0.2,2.1-0.6c4.6-2.7,9.3-5.4,13.9-8.1"/>
    <path fill="none" stroke="#000" stroke-width="10" stroke-linecap="round" stroke-linejoin="round" d="M-103.8,425.4c2.8,1.2,5.6,2.3,8.4,3.5c0.6,0.3,1.3,0.5,1.9,0.5c0.8-0.1,1.4-0.6,2-1c4.1-3.2,8.2-6.4,12.3-9.6   "/>
  </symbol>
  <symbol id="emoji-18" viewBox="1537.0 55.8 223.9 223.9">
    <path fill="none" stroke="#000" stroke-width="10" stroke-linecap="round" stroke-linejoin="round" d="M1666.3,203.2c0.9,6.5,0.8,12.6-2.9,18.5c-4,6.5-14.9,7.7-19.7,1.2c-4.3-5.8-5.9-12.3-4.9-19.4"/>
    <path fill="none" stroke="#000" stroke-width="10" stroke-linecap="round" stroke-linejoin="round" d="M1640.8,129.7c-8.4-0.5-16.7-1.2-25.1-1.4c-4.9-0.1-9.8,0.4-14.7,0.7"/>
    <path fill="none" stroke="#000" stroke-width="10" stroke-linecap="round" stroke-linejoin="round" d="M1707.6,128.8c-4.8-0.1-9.5,0-14.3-0.5c-3-0.3-5.9,0.2-8.9,0.1c-3.9,0-7.9,0.5-11.8,0.7   c-1.5,0.1-2.9,0.8-4.4,0.5"/>
    <path fill="none" stroke="#000" stroke-width="10" stroke-linecap="round" stroke-linejoin="round" d="M1690.9,197c-4.3,1-8.7,2.1-13,3.1c-2.4,0.5-4.7,0.8-7.1,1.2c-0.2,0-0.6-0.1-0.7,0c-3.3,2.1-7,1-10.6,1.2   c-1.5,0.1-3,0.2-4.4,0.8c-0.5,0.2-0.8,0.5-1.5,0.3c-4.6-1.1-9.3-1.4-14-0.5c-0.3,0.1-0.7,0.3-1,0.2c-5.2-2.5-11.1-2.1-16.5-3.7   c-1.9-0.5-3.7-1.3-5.7-1.7c-1.2-0.2-1.1-0.7-0.9-1.5"/>
    <path fill="none" stroke="#000" stroke-width="10" stroke-linecap="round" stroke-linejoin="round" d="M1645.7,68c-3.4,0.4-6.7,1.2-10.1,1.1c-4.5-0.1-8.7,1.2-12.8,2.6c-10.9,3.8-20.8,9.5-29.7,16.7   c-20.6,16.6-34,37.9-40.8,63.4c-2.7,10-3.8,20.1-3,30.5c1.7,21.3,9.9,39.8,24.6,55.3c13.1,13.9,29.5,22,47.9,26.3   c11.6,2.7,23.3,4.2,35.2,3.6c15.9-0.8,30.7-5.3,44.2-13.5c17.3-10.4,29.6-25.3,38.1-43.5c3.5-7.5,6.1-15.2,7.6-23.3   c1.2-6,1.9-12,2-18.2c0.3-9.8-0.7-19.3-3.2-28.8c-3.2-12.1-8.6-23.2-16-33.2c-6.5-8.7-14.1-16.4-23.3-22.4   c-13-8.5-27.3-13.3-42.8-14.2c-4.6-0.3-9-1.4-13.5-2.3c-1.4-0.3-2.8-0.1-4.2-0.2"/>
  </symbol>
  <symbol id="emoji-19" viewBox="1869.6 44.9 227.4 227.4">
    <path fill="none" stroke="#000" stroke-width="10" stroke-linecap="round" stroke-linejoin="round" d="M1952.2,161.5c1.2,3-0.5,5.7-0.7,8.5c-0.3,4.5,0,9,0.6,13.5c0.9,7.5,3,14.6,5.9,21.5    c2.7,6.6,6.2,12.7,12.3,16.7c7.8,5.2,16.3,7.1,25.5,3.8c5.1-1.8,8.7-5.5,11.7-9.8c4.9-6.8,6.9-14.8,8.7-22.8    c1.5-6.8,2.2-13.8,2.3-20.7c0-1.7,0.1-3.5-0.8-5c-0.6-1,0.4-1.7,0.2-2.5"/>
    <path fill="none" stroke="#000" stroke-width="10" stroke-linecap="round" stroke-linejoin="round" d="M2017,166.5c-1.6-0.3-3.1,0-4.5,0.8c-4.9,2.4-10.1,3.6-15.5,4.3c-12.3,1.5-24.2,0.2-35.8-4    c-2.6-0.9-5-2.6-8-2.3"/>
    <path fill="none" stroke="#000" stroke-width="10" stroke-linecap="round" stroke-linejoin="round" d="M1971.2,114c0.5-1.9-0.9-2.9-2-3.7c-11.6-8.8-26.4-7.9-36.7,2.5c-1.5,1.5-2.9,2.2-4.8,1.9"/>
    <path fill="none" stroke="#000" stroke-width="10" stroke-linecap="round" stroke-linejoin="round" d="M2046.8,114.5c-0.8,0.1-1.2-0.4-1.8-1c-5.8-6.1-12.9-9.6-21.5-9.3c-5.9,0.2-11.1,2.3-15.8,5.9    c-1.2,1-2.3,2.5-4.2,2"/>
    <path fill="none" stroke="#000" stroke-width="10" stroke-linecap="round" stroke-linejoin="round" d="M1979.8,57c-3.4,0.4-6.8,1.2-10.2,1.2c-4.6-0.1-8.8,1.2-13,2.6c-11.1,3.9-21.1,9.6-30.2,17    c-21,16.9-34.6,38.6-41.5,64.5c-2.7,10.2-3.8,20.5-3,31c1.7,21.7,10.1,40.5,25,56.2c13.4,14.1,30,22.3,48.7,26.8    c11.8,2.8,23.7,4.3,35.8,3.7c16.1-0.8,31.2-5.4,45-13.7c17.6-10.6,30.1-25.8,38.7-44.2c3.5-7.6,6.2-15.5,7.8-23.7    c1.2-6.1,1.9-12.2,2.1-18.5c0.3-9.9-0.8-19.7-3.3-29.3c-3.3-12.3-8.7-23.5-16.3-33.7c-6.6-8.9-14.4-16.7-23.7-22.8    c-13.2-8.6-27.7-13.5-43.5-14.5c-4.7-0.3-9.2-1.5-13.7-2.3c-1.4-0.3-2.8-0.1-4.3-0.2"/>
  </symbol>
  <symbol id="emoji-20" viewBox="1731.6 823.9 227.4 227.4">
    <path fill="none" stroke="#000" stroke-width="10" stroke-linecap="round" stroke-linejoin="round" d="M1814.2,1006.1c3-1.2,5.7,0.5,8.5,0.7c4.5,0.3,9,0,13.5-0.6c7.5-0.9,14.6-3,21.5-5.9    c6.6-2.7,12.7-6.2,16.7-12.3c5.2-7.8,7.1-16.3,3.8-25.5c-1.8-5.1-5.5-8.7-9.8-11.7c-6.8-4.9-14.8-6.9-22.8-8.7    c-6.8-1.5-13.8-2.2-20.7-2.3c-1.7,0-3.5-0.1-5,0.8c-1,0.6-1.7-0.4-2.5-0.2"/>
    <path fill="none" stroke="#000" stroke-width="10" stroke-linecap="round" stroke-linejoin="round" d="M1819.2,941.3c-0.3,1.6,0,3.1,0.8,4.5c2.4,4.9,3.6,10.1,4.3,15.5c1.5,12.3,0.2,24.2-4,35.8    c-0.9,2.6-2.6,5-2.3,8"/>
    <path fill="none" stroke="#000" stroke-width="10" stroke-linecap="round" stroke-linejoin="round" d="M1833.2,893c0.5-1.9-0.9-2.9-2-3.7c-11.6-8.8-26.4-7.9-36.7,2.5c-1.5,1.5-2.9,2.2-4.8,1.9"/>
    <path fill="none" stroke="#000" stroke-width="10" stroke-linecap="round" stroke-linejoin="round" d="M1908.8,893.5c-0.8,0.1-1.2-0.4-1.8-1c-5.8-6.1-12.9-9.6-21.5-9.3c-5.9,0.2-11.1,2.3-15.8,5.9    c-1.2,1-2.3,2.5-4.2,2"/>
    <path fill="none" stroke="#000" stroke-width="10" stroke-linecap="round" stroke-linejoin="round" d="M1841.8,836c-3.4,0.4-6.8,1.2-10.2,1.2c-4.6-0.1-8.8,1.2-13,2.6c-11.1,3.9-21.1,9.6-30.2,17    c-21,16.9-34.6,38.6-41.5,64.5c-2.7,10.2-3.8,20.5-3,31c1.7,21.7,10.1,40.5,25,56.2c13.4,14.1,30,22.3,48.7,26.8    c11.8,2.8,23.7,4.3,35.8,3.7c16.1-0.8,31.2-5.4,45-13.7c17.6-10.6,30.1-25.8,38.7-44.2c3.5-7.6,6.2-15.5,7.8-23.7    c1.2-6.1,1.9-12.2,2.1-18.5c0.3-9.9-0.8-19.7-3.3-29.3c-3.3-12.3-8.7-23.5-16.3-33.7c-6.6-8.9-14.4-16.7-23.7-22.8    c-13.2-8.6-27.7-13.5-43.5-14.5c-4.7-0.3-9.2-1.5-13.7-2.3c-1.4-0.3-2.8-0.1-4.3-0.2"/>
    <circle fill="none" stroke="#000" stroke-width="10" stroke-linecap="round" stroke-linejoin="round" cx="1808.0" cy="905.0" r="4.0"/>
    <circle fill="none" stroke="#000" stroke-width="10" stroke-linecap="round" stroke-linejoin="round" cx="1876.0" cy="905.0" r="4.0"/>
  </symbol>
  <symbol id="emoji-21" viewBox="174.9 829.5 226.6 226.6">
    <path fill="none" stroke="#000" stroke-width="10" stroke-linecap="round" stroke-linejoin="round" d="M257.5,945.7c1.2,3-0.5,5.7-0.7,8.5c-0.3,4.5,0,9,0.6,13.5c0.9,7.5,3,14.5,5.8,21.4   c2.7,6.5,6.2,12.7,12.2,16.6c7.8,5.2,16.2,7.1,25.4,3.8c5.1-1.8,8.7-5.5,11.7-9.7c4.9-6.8,6.9-14.7,8.7-22.7   c1.5-6.8,2.2-13.7,2.3-20.7c0-1.7,0.1-3.5-0.8-5c-0.6-1,0.4-1.7,0.2-2.5"/>
    <path fill="none" stroke="#000" stroke-width="10" stroke-linecap="round" stroke-linejoin="round" d="M322.1,950.6c-1.6-0.3-3.1,0-4.5,0.8c-4.9,2.4-10,3.6-15.4,4.3c-12.2,1.5-24.1,0.2-35.7-4   c-2.6-0.9-5-2.6-8-2.3"/>
    <path fill="none" stroke="#000" stroke-width="10" stroke-linecap="round" stroke-linejoin="round" d="M276.5,898.3c0.5-1.9-0.9-2.8-2-3.7c-11.6-8.8-26.3-7.9-36.6,2.5c-1.5,1.5-2.8,2.2-4.8,1.9"/>
    <path fill="none" stroke="#000" stroke-width="10" stroke-linecap="round" stroke-linejoin="round" d="M351.7,898.8c-0.8,0.1-1.2-0.4-1.8-1c-5.8-6.1-12.9-9.5-21.4-9.2c-5.8,0.2-11.1,2.3-15.7,5.9   c-1.2,1-2.3,2.5-4.2,2"/>
    <path fill="none" stroke="#000" stroke-width="10" stroke-linecap="round" stroke-linejoin="round" d="M284.9,841.5c-3.4,0.4-6.8,1.2-10.2,1.2c-4.6-0.1-8.8,1.2-12.9,2.6c-11,3.8-21.1,9.6-30.2,16.9   c-20.9,16.8-34.5,38.4-41.4,64.3c-2.7,10.1-3.8,20.4-3,30.9c1.7,21.6,10,40.3,24.9,56.1c13.3,14.1,29.9,22.3,48.6,26.7   c11.7,2.8,23.6,4.3,35.6,3.7c16.1-0.8,31.1-5.4,44.8-13.7c17.5-10.6,30-25.7,38.6-44.1c3.5-7.6,6.1-15.5,7.7-23.7   c1.2-6.1,1.9-12.2,2.1-18.4c0.3-9.9-0.8-19.6-3.3-29.2c-3.3-12.3-8.7-23.5-16.3-33.6c-6.6-8.9-14.3-16.6-23.6-22.7   c-13.2-8.6-27.6-13.5-43.4-14.4c-4.7-0.3-9.2-1.5-13.7-2.3c-1.4-0.3-2.8-0.1-4.2-0.2"/>
  </symbol>
  <symbol id="emoji-22" viewBox="1672.6 308.8 235.4 235.4">
    <path fill="none" stroke="#000" stroke-width="10" stroke-linecap="round" stroke-linejoin="round" d="M1727.8,339.5c-2.5-0.1-4.6,1.1-6.4,2.6c-6.4,5.5-11.9,11.7-16.2,19.1c-8,13.7-12.7,28.5-15.6,44   c-2.1,11.4-2.4,23-1.9,34.5c0.6,12.7,3,25.2,7.8,37.1c7.1,17.3,18.9,30.7,34.8,40.4c11.7,7.1,24.5,11.6,38.1,13.7   c7.6,1.2,15.2,1.6,22.8,1.1c15.6-1,30.4-5,44.3-12.4c13.4-7.2,24.6-17.1,33.7-29.2c10.2-13.4,16.9-28.4,20.7-44.8   c3.1-13.3,3.9-26.8,2.6-40.4c-1.3-14.3-5.1-27.9-12.3-40.4c-9.3-16.1-22.8-27.4-39.8-34.9c-8.4-3.7-17-6.3-25.9-7.7   c-7.2-1.2-14.6-1.7-22-1.2c-7.1,0.5-14.2,1.1-21.2,2.4c-10.9,1.9-21.8,4-31.7,9.2c-4,2.1-7.9,4.3-11.5,6.9"/>
    <path fill="none" stroke="#000" stroke-width="10" stroke-linecap="round" stroke-linejoin="round" d="M1832.9,450.8c-1.7,5.1-3.2,10.2-6.1,14.9c-6.7,11.1-16.6,17.5-29,20.4c-5.6,1.3-11.3,2.1-17.1,1.8   c-6.7-0.4-13.2-1.3-18.7-5.8c-3.3-2.8-5.1-6.3-5.6-10.5"/>
    <path fill="none" stroke="#000" stroke-width="10" stroke-linecap="round" stroke-linejoin="round" d="M1842.4,380.8c-3.3,0-6.6-0.6-10-0.4c-4.3,0.3-8.4,1.5-12,3.8c-1.5,0.9-2,2.2-1.8,3.9"/>
    <path fill="none" stroke="#000" stroke-width="10" stroke-linecap="round" stroke-linejoin="round" d="M1824.7,438.5c0.1,5.6,3.4,9.1,7.9,11.8c0,0,0,0.3,0.3,0.2c4.2-0.8,8.7-0.7,11.8-4.6c0.5-0.7,0.3-1.4,0.6-2.1"/>
    <circle fill="none" stroke="#000" stroke-width="10" stroke-linecap="round" stroke-linejoin="round" cx="1749.0" cy="388.0" r="9.0"/>
  </symbol>
  <symbol id="emoji-23" viewBox="559.5 817.6 240.7 240.7">
    <path fill="none" stroke="#000" stroke-width="10" stroke-linecap="round" stroke-linejoin="round" d="M642.3,833c-3-0.9-5.8-0.6-8.6,0.8c-16.8,8.2-29.8,20.4-39.5,36.3c-9.2,15.2-14,31.9-15.6,49.4   c-1,10.8-0.6,21.6,0.7,32.4c1.6,12.7,4.4,25,9.2,36.8c3.7,9.1,8.7,17.3,15.1,24.9c9.8,11.6,21.9,20.2,35.9,25.8   c9.7,3.9,19.8,6,30.3,6.7c26.8,1.6,50.7-6,71.6-22.6c11.8-9.4,20.4-21.6,27-35.2c6.2-12.6,9.8-25.8,11.9-39.5   c1.4-9,1.7-18.1,1-27.2c-1-13.9-4-27.4-10.8-39.8c-3.2-5.8-6.9-11.2-11.3-16.2c-11.4-12.9-25.5-21.9-41.6-27.6   c-9-3.2-18.4-5.1-27.9-5.9c-4.4-0.4-8.7-0.4-13.1-0.4c-1.5,0-3-0.2-4.1-0.9c-1.9-1.2-3.8-1.2-5.8-1.2"/>
    <path fill="none" stroke="#000" stroke-width="10" stroke-linecap="round" stroke-linejoin="round" d="M632.1,911.9c-0.2-2,0.4-3.3,2-4.8c5.6-4.8,12-5.5,18.9-4.6c5,0.7,9.5,2.2,13.1,6c1.1,1.2,1.5,2.4,1.3,3.9"/>
    <path fill="none" stroke="#000" stroke-width="10" stroke-linecap="round" stroke-linejoin="round" d="M699,911.9c-0.2-2,0.4-3.3,2-4.8c5.6-4.8,12-5.5,18.9-4.6c5,0.7,9.5,2.2,13.1,6c1.1,1.2,1.5,2.4,1.3,3.9"/>
    <path fill="none" stroke="#000" stroke-width="10" stroke-linecap="round" stroke-linejoin="round" d="M694,961.5c5.3,0.2,9.9,2.7,14.6,4.6c1.5,0.6,3,1.9,3.1,3.6c0.1,2-1.2,4.3-2.4,5.3c-1.5,1.2-4.1,1.3-6.4,1.3"/>
    <path fill="none" stroke="#000" stroke-width="10" stroke-linecap="round" stroke-linejoin="round" d="M709.7,975.2c1,1.4,2.5,2.2,3.9,3.2c3.2,2.1,3.5,4.5,1,7.3c-2,2.3-4.1,4.4-6.3,6.5c-1.1,1.1-1.9,2.3-1.8,3.9"/>
  </symbol>
  <symbol id="emoji-24" viewBox="953.1 824.8 235.3 235.3">
    <path fill="none" stroke="#000" stroke-width="10" stroke-linecap="round" stroke-linejoin="round" d="M1097.2,987.8c0.4-2.5-0.5-4.5-2.3-6.3c-4.9-4.9-10.5-8.5-17.1-10.4c-11.5-3.3-27.1,2-34.3,12   c-0.9,1.2-1.2,2.5-1,3.9"/>
    <path fill="none" stroke="#000" stroke-width="10" stroke-linecap="round" stroke-linejoin="round" d="M1087.6,902.5c1.1-0.1,2.2,0.1,3.4-0.2c0.7-0.2,1.7-0.4,2.3,0.2c3.5,3.9,8.8,4.4,13.1,6.9   c1.7,1,3.7,2.1,5.9,2.2"/>
    <path fill="none" stroke="#000" stroke-width="10" stroke-linecap="round" stroke-linejoin="round" d="M1048.7,902.7c-1,0.5-2-0.1-2.8-0.2c-1.5-0.3-2.5,0.1-3.4,1.1c-1.2,1.4-3,1.9-4.7,2.6   c-3.5,1.5-6.9,3.1-10.4,4.7c-0.9,0.4-1.8,0.9-2.9,0.8"/>
    <path fill="none" stroke="#000" stroke-width="10" stroke-linecap="round" stroke-linejoin="round" d="M1108.4,890.6c0.3,1.1-0.6,1.2-1.3,1.6c-3.3,1.8-6.6,3.6-9.9,5.4c-1.9,1.1-3.4,2.6-4.2,4.7"/>
    <path fill="none" stroke="#000" stroke-width="10" stroke-linecap="round" stroke-linejoin="round" d="M1025.1,891.6c2.4-0.3,4.5,0.4,6.5,1.5c2.6,1.5,5.4,2.9,8,4.5c1.8,1.1,3.4,2.6,4.2,4.7"/>
    <path fill="none" stroke="#000" stroke-width="10" stroke-linecap="round" stroke-linejoin="round" d="M1039.9,870.6c1.3-0.8,2.3,0.2,3.1,0.8c4.2,3.1,8.4,6.3,12.4,9.6c1.7,1.5,3.4,2.1,5.5,1.4"/>
    <path fill="none" stroke="#000" stroke-width="10" stroke-linecap="round" stroke-linejoin="round" d="M1097.5,870.3c-1.4-0.2-2.6,0.2-3.6,1c-4.1,3.1-8.3,6.1-12.1,9.4c-1.8,1.6-3.5,2.4-5.8,1.6"/>
    <path fill="none" stroke="#000" stroke-width="10" stroke-linecap="round" stroke-linejoin="round" d="M1067.1,836.8c-3.5,0.4-7.1,1.3-10.6,1.2c-4.8-0.1-9.1,1.2-13.5,2.7c-11.5,4-21.9,10-31.4,17.7   c-21.8,17.6-35.9,40.1-43.1,67.1c-2.8,10.6-4,21.3-3.1,32.2c1.8,22.6,10.5,42.1,26,58.5c13.9,14.7,31.1,23.2,50.6,27.9   c12.2,2.9,24.6,4.5,37.1,3.8c16.7-0.8,32.3-5.6,46.7-14.3c18.2-11,31.2-26.8,40.2-46c3.7-7.9,6.4-16.1,8.1-24.7   c1.2-6.4,2-12.7,2.2-19.2c0.3-10.3-0.8-20.4-3.4-30.4c-3.4-12.8-9.1-24.5-16.9-35.1c-6.9-9.2-14.9-17.4-24.6-23.7   c-13.7-8.9-28.8-14-45.1-15.1c-4.9-0.3-9.5-1.5-14.3-2.4c-1.5-0.3-3-0.1-4.4-0.2"/>
  </symbol>
</svg>
