<?xml version="1.0" encoding="utf-8"?>
<!-- Generator: Adobe Illustrator 25.0.0, SVG Export Plug-In . SVG Version: 6.00 Build 0)  -->
<svg version="1.1" id="eyes" xmlns="http://www.w3.org/2000/svg" xmlns:xlink="http://www.w3.org/1999/xlink" x="0px" y="0px"
	 viewBox="0 0 595.3 841.9" style="enable-background:new 0 0 595.3 841.9;" xml:space="preserve">
<style type="text/css">
	.st0{fill:none;stroke:#282828;stroke-width:9;stroke-linecap:round;stroke-linejoin:round;stroke-miterlimit:10;}
</style>
<path id="left" class="st0" d="M124,353.9c-8.3-5.2-3.6-28.7,5.5-28.4c11.1,0.4,21.7,18.8,10.7,30.1c-8.2,8.4-15.1,12.2-16.6,6.2
	c-1.5-5.8,7.8-20.6,21.9-17.2c6,1.4,14,5.7,14.4,11.5c0.8,12.3-16.3,22-24.2,16.8c-9.9-6.7-15.6-39.9,0.3-43c12-2.4,17.3,0,19.4,9.8
	c2.2,10.1-6.6,22.9-14.2,23.5"/>
<path id="right" class="st0" d="M279,321.5c-13.1,0.1-22.1,9.6-21.8,18.4c0.3,7.2,6.8,13.1,13.2,14.9c13.3,3.8,23.5-13.1,20.8-16.2
	c-11.6-13.5-25.7-2.7-30.1,10.3c-2.4,7.1,2.2,18.5,11.1,20.9c6.5,1.7,13.8-1.8,17-6.9c6.1-9.8,0.1-25-11.9-20
	c-12.5,5.1-6.6,11.5,0.3,22.5"/>
</svg>
